<svg version="1.1" xmlns="http://www.w3.org/2000/svg" viewBox="0 0 1335.9685471653409 1261.311334057977" width="1335.9685471653409" height="1261.311334057977">
  <!-- svg-source:excalidraw -->
  
  <defs>
    <style class="style-fonts">
      @font-face {
        font-family: "Virgil";
        src: url("https://excalidraw.com/Virgil.woff2");
      }
      @font-face {
        font-family: "Cascadia";
        src: url("https://excalidraw.com/Cascadia.woff2");
      }
    </style>
    
  </defs>
  <g stroke-linecap="round" transform="translate(331.7632699264779 510.6892761406872) rotate(0 107 98)"><path d="M32 0 C72.05 0, 112.1 0, 182 0 M32 0 C88.82 0, 145.64 0, 182 0 M182 0 C203.33 0, 214 10.67, 214 32 M182 0 C203.33 0, 214 10.67, 214 32 M214 32 C214 80.32, 214 128.64, 214 164 M214 32 C214 79.16, 214 126.32, 214 164 M214 164 C214 185.33, 203.33 196, 182 196 M214 164 C214 185.33, 203.33 196, 182 196 M182 196 C143.41 196, 104.82 196, 32 196 M182 196 C148.36 196, 114.72 196, 32 196 M32 196 C10.67 196, 0 185.33, 0 164 M32 196 C10.67 196, 0 185.33, 0 164 M0 164 C0 118.24, 0 72.48, 0 32 M0 164 C0 116.01, 0 68.03, 0 32 M0 32 C0 10.67, 10.67 0, 32 0 M0 32 C0 10.67, 10.67 0, 32 0" stroke="#1e1e1e" stroke-width="1" fill="none"></path></g><g transform="translate(380.1695199264779 584.6892761406872) rotate(0 58.59375 24)"><text x="58.59375" y="0" font-family="Cascadia, Segoe UI Emoji" font-size="20px" fill="#1e1e1e" text-anchor="middle" style="white-space: pre;" direction="ltr" dominant-baseline="text-before-edge">Processing</text><text x="58.59375" y="24" font-family="Cascadia, Segoe UI Emoji" font-size="20px" fill="#1e1e1e" text-anchor="middle" style="white-space: pre;" direction="ltr" dominant-baseline="text-before-edge">Unit</text></g><g stroke-linecap="round" transform="translate(1184.9685471653409 276.6645063569636) rotate(0 70.5 68.5)"><path d="M32 0 C48.25 0, 64.5 0, 109 0 M32 0 C51.13 0, 70.25 0, 109 0 M109 0 C130.33 0, 141 10.67, 141 32 M109 0 C130.33 0, 141 10.67, 141 32 M141 32 C141 50.96, 141 69.93, 141 105 M141 32 C141 50.9, 141 69.8, 141 105 M141 105 C141 126.33, 130.33 137, 109 137 M141 105 C141 126.33, 130.33 137, 109 137 M109 137 C91.04 137, 73.08 137, 32 137 M109 137 C81.78 137, 54.56 137, 32 137 M32 137 C10.67 137, 0 126.33, 0 105 M32 137 C10.67 137, 0 126.33, 0 105 M0 105 C0 86.29, 0 67.58, 0 32 M0 105 C0 83.31, 0 61.62, 0 32 M0 32 C0 10.67, 10.67 0, 32 0 M0 32 C0 10.67, 10.67 0, 32 0" stroke="#1e1e1e" stroke-width="1" fill="none"></path></g><g transform="translate(1232.0310471653409 333.1645063569636) rotate(0 23.4375 12)"><text x="23.4375" y="0" font-family="Cascadia, Segoe UI Emoji" font-size="20px" fill="#1e1e1e" text-anchor="middle" style="white-space: pre;" direction="ltr" dominant-baseline="text-before-edge">Coil</text></g><g stroke-linecap="round" transform="translate(1184.9685471653409 546.0117647898221) rotate(0 70.5 68.5)"><path d="M32 0 C51.45 0, 70.9 0, 109 0 M32 0 C49.93 0, 67.86 0, 109 0 M109 0 C130.33 0, 141 10.67, 141 32 M109 0 C130.33 0, 141 10.67, 141 32 M141 32 C141 47.51, 141 63.02, 141 105 M141 32 C141 54.51, 141 77.01, 141 105 M141 105 C141 126.33, 130.33 137, 109 137 M141 105 C141 126.33, 130.33 137, 109 137 M109 137 C90.73 137, 72.47 137, 32 137 M109 137 C79.45 137, 49.9 137, 32 137 M32 137 C10.67 137, 0 126.33, 0 105 M32 137 C10.67 137, 0 126.33, 0 105 M0 105 C0 83.88, 0 62.76, 0 32 M0 105 C0 76.76, 0 48.52, 0 32 M0 32 C0 10.67, 10.67 0, 32 0 M0 32 C0 10.67, 10.67 0, 32 0" stroke="#1e1e1e" stroke-width="1" fill="none"></path></g><g transform="translate(1232.0310471653409 602.511764789822) rotate(0 23.4375 12)"><text x="23.4375" y="0" font-family="Cascadia, Segoe UI Emoji" font-size="20px" fill="#1e1e1e" text-anchor="middle" style="white-space: pre;" direction="ltr" dominant-baseline="text-before-edge">Coil</text></g><g stroke-linecap="round"><g transform="translate(426.07933223585013 509.6892761406872) rotate(0 -0.3978588655317026 -202)"><path d="M0 0 C-0.13 -67.33, -0.66 -336.67, -0.8 -404 M0 0 C-0.13 -67.33, -0.66 -336.67, -0.8 -404" stroke="#1e1e1e" stroke-width="1" fill="none"></path></g><g transform="translate(426.07933223585013 509.6892761406872) rotate(0 -0.3978588655317026 -202)"><path d="M-0.8 -404 L5.57 -390.42 L-7.11 -390.39 L-0.8 -404" stroke="none" stroke-width="0" fill="#1e1e1e" fill-rule="evenodd"></path><path d="M-0.8 -404 C0.81 -400.58, 2.41 -397.15, 5.57 -390.42 M-0.8 -404 C0.6 -401.02, 2 -398.04, 5.57 -390.42 M5.57 -390.42 C1.79 -390.41, -1.99 -390.4, -7.11 -390.39 M5.57 -390.42 C0.84 -390.41, -3.89 -390.4, -7.11 -390.39 M-7.11 -390.39 C-5.47 -393.92, -3.84 -397.44, -0.8 -404 M-7.11 -390.39 C-4.64 -395.71, -2.17 -401.04, -0.8 -404 M-0.8 -404 C-0.8 -404, -0.8 -404, -0.8 -404 M-0.8 -404 C-0.8 -404, -0.8 -404, -0.8 -404" stroke="#1e1e1e" stroke-width="1" fill="none"></path></g></g><mask></mask><g stroke-linecap="round"><g transform="translate(457.1086823835871 105.68927614068718) rotate(0 0.3271346448991608 202)"><path d="M0 0 C0.11 67.33, 0.55 336.67, 0.65 404 M0 0 C0.11 67.33, 0.55 336.67, 0.65 404" stroke="#1e1e1e" stroke-width="1" fill="none"></path></g><g transform="translate(457.1086823835871 105.68927614068718) rotate(0 0.3271346448991608 202)"><path d="M0.65 404 L-5.71 390.42 L6.97 390.4 L0.65 404" stroke="none" stroke-width="0" fill="#1e1e1e" fill-rule="evenodd"></path><path d="M0.65 404 C-0.98 400.51, -2.61 397.02, -5.71 390.42 M0.65 404 C-1.59 399.2, -3.84 394.4, -5.71 390.42 M-5.71 390.42 C-2.66 390.41, 0.38 390.41, 6.97 390.4 M-5.71 390.42 C-1.86 390.41, 2 390.4, 6.97 390.4 M6.97 390.4 C5.13 394.36, 3.29 398.33, 0.65 404 M6.97 390.4 C5.21 394.19, 3.45 397.98, 0.65 404 M0.65 404 C0.65 404, 0.65 404, 0.65 404 M0.65 404 C0.65 404, 0.65 404, 0.65 404" stroke="#1e1e1e" stroke-width="1" fill="none"></path></g></g><mask></mask><g transform="translate(471.71754705200766 149.4750441061259) rotate(0 23.4375 12)"><text x="23.4375" y="0" font-family="Cascadia, Segoe UI Emoji" font-size="20px" fill="#1e1e1e" text-anchor="middle" style="white-space: pre;" direction="ltr" dominant-baseline="text-before-edge">UART</text></g><g stroke-linecap="round" transform="translate(330.11504853636615 1157.311334057977) rotate(0 346.23753726960354 47)"><path d="M23.5 0 C194.68 0, 365.86 0, 668.98 0 M23.5 0 C257.32 0, 491.14 0, 668.98 0 M668.98 0 C684.64 0, 692.48 7.83, 692.48 23.5 M668.98 0 C684.64 0, 692.48 7.83, 692.48 23.5 M692.48 23.5 C692.48 35.67, 692.48 47.85, 692.48 70.5 M692.48 23.5 C692.48 41.88, 692.48 60.26, 692.48 70.5 M692.48 70.5 C692.48 86.17, 684.64 94, 668.98 94 M692.48 70.5 C692.48 86.17, 684.64 94, 668.98 94 M668.98 94 C535.7 94, 402.43 94, 23.5 94 M668.98 94 C508.1 94, 347.22 94, 23.5 94 M23.5 94 C7.83 94, 0 86.17, 0 70.5 M23.5 94 C7.83 94, 0 86.17, 0 70.5 M0 70.5 C0 56.86, 0 43.21, 0 23.5 M0 70.5 C0 55.51, 0 40.53, 0 23.5 M0 23.5 C0 7.83, 7.83 0, 23.5 0 M0 23.5 C0 7.83, 7.83 0, 23.5 0" stroke="#1e1e1e" stroke-width="1" fill="none"></path></g><g transform="translate(594.3213358059697 1192.311334057977) rotate(0 82.03125 12)"><text x="82.03125" y="0" font-family="Cascadia, Segoe UI Emoji" font-size="20px" fill="#1e1e1e" text-anchor="middle" style="white-space: pre;" direction="ltr" dominant-baseline="text-before-edge">Host Smatphone</text></g><g stroke-linecap="round"><g transform="translate(457.8621470934824 1154.0620750969551) rotate(0 0.7803297461028933 -224.21649899247603)"><path d="M0 0 C0.26 -74.74, 1.3 -373.69, 1.56 -448.43 M0 0 C0.26 -74.74, 1.3 -373.69, 1.56 -448.43" stroke="#1e1e1e" stroke-width="1" fill="none"></path></g><g transform="translate(457.8621470934824 1154.0620750969551) rotate(0 0.7803297461028933 -224.21649899247603)"><path d="M1.56 -448.43 L7.85 -434.82 L-4.83 -434.86 L1.56 -448.43" stroke="none" stroke-width="0" fill="#1e1e1e" fill-rule="evenodd"></path><path d="M1.56 -448.43 C3.53 -444.18, 5.49 -439.92, 7.85 -434.82 M1.56 -448.43 C3.87 -443.44, 6.17 -438.45, 7.85 -434.82 M7.85 -434.82 C3.02 -434.83, -1.81 -434.85, -4.83 -434.86 M7.85 -434.82 C3.12 -434.83, -1.61 -434.85, -4.83 -434.86 M-4.83 -434.86 C-3.26 -438.2, -1.68 -441.54, 1.56 -448.43 M-4.83 -434.86 C-3.04 -438.65, -1.26 -442.44, 1.56 -448.43 M1.56 -448.43 C1.56 -448.43, 1.56 -448.43, 1.56 -448.43 M1.56 -448.43 C1.56 -448.43, 1.56 -448.43, 1.56 -448.43" stroke="#1e1e1e" stroke-width="1" fill="none"></path></g></g><mask></mask><g stroke-linecap="round"><g transform="translate(421.49150048804705 707.6892761406872) rotate(0 0.3073133715834615 223.18639947813398)"><path d="M0 0 C0.1 74.4, 0.51 371.98, 0.61 446.37 M0 0 C0.1 74.4, 0.51 371.98, 0.61 446.37" stroke="#1e1e1e" stroke-width="1" fill="none"></path></g><g transform="translate(421.49150048804705 707.6892761406872) rotate(0 0.3073133715834615 223.18639947813398)"><path d="M0.61 446.37 L-5.74 432.79 L6.94 432.77 L0.61 446.37" stroke="none" stroke-width="0" fill="#1e1e1e" fill-rule="evenodd"></path><path d="M0.61 446.37 C-0.83 443.28, -2.28 440.19, -5.74 432.79 M0.61 446.37 C-1.86 441.09, -4.33 435.8, -5.74 432.79 M-5.74 432.79 C-2.49 432.78, 0.76 432.78, 6.94 432.77 M-5.74 432.79 C-1.98 432.78, 1.79 432.78, 6.94 432.77 M6.94 432.77 C4.77 437.42, 2.61 442.07, 0.61 446.37 M6.94 432.77 C5.47 435.93, 4 439.09, 0.61 446.37 M0.61 446.37 C0.61 446.37, 0.61 446.37, 0.61 446.37 M0.61 446.37 C0.61 446.37, 0.61 446.37, 0.61 446.37" stroke="#1e1e1e" stroke-width="1" fill="none"></path></g></g><mask></mask><g transform="translate(472.3613433414766 1080.5712889670085) rotate(0 23.4375 12)"><text x="23.4375" y="0" font-family="Cascadia, Segoe UI Emoji" font-size="20px" fill="#1e1e1e" text-anchor="middle" style="white-space: pre;" direction="ltr" dominant-baseline="text-before-edge">WiFi</text></g><g stroke-linecap="round" transform="translate(-198.95401252038755 560.4172758431234) rotate(270.3580939593235 257.5628308313719 46.999999999999986)"><path d="M23.5 0 C135.89 0, 248.28 0, 491.63 0 M23.5 0 C165.7 0, 307.9 0, 491.63 0 M491.63 0 C507.29 0, 515.13 7.83, 515.13 23.5 M491.63 0 C507.29 0, 515.13 7.83, 515.13 23.5 M515.13 23.5 C515.13 35.06, 515.13 46.62, 515.13 70.5 M515.13 23.5 C515.13 36.63, 515.13 49.76, 515.13 70.5 M515.13 70.5 C515.13 86.17, 507.29 94, 491.63 94 M515.13 70.5 C515.13 86.17, 507.29 94, 491.63 94 M491.63 94 C395.72 94, 299.81 94, 23.5 94 M491.63 94 C394.47 94, 297.32 94, 23.5 94 M23.5 94 C7.83 94, 0 86.17, 0 70.5 M23.5 94 C7.83 94, 0 86.17, 0 70.5 M0 70.5 C0 57.67, 0 44.84, 0 23.5 M0 70.5 C0 55.36, 0 40.23, 0 23.5 M0 23.5 C0 7.83, 7.83 0, 23.5 0 M0 23.5 C0 7.83, 7.83 0, 23.5 0" stroke="#1e1e1e" stroke-width="1" fill="none"></path></g><g transform="translate(29.311943310984304 595.4172758431234) rotate(270.3580939593235 29.296875 12)"><text x="29.296875" y="0" font-family="Cascadia, Segoe UI Emoji" font-size="20px" fill="#1e1e1e" text-anchor="middle" style="white-space: pre;" direction="ltr" dominant-baseline="text-before-edge">Power</text></g><g stroke-linecap="round" transform="translate(756.3924128467731 250.7384672751917) rotate(0 82.40048610755639 49.81407869825331)"><path d="M24.91 0 C66.59 0, 108.27 0, 139.89 0 M24.91 0 C60.79 0, 96.67 0, 139.89 0 M139.89 0 C156.5 0, 164.8 8.3, 164.8 24.91 M139.89 0 C156.5 0, 164.8 8.3, 164.8 24.91 M164.8 24.91 C164.8 44.44, 164.8 63.98, 164.8 74.72 M164.8 24.91 C164.8 39.03, 164.8 53.16, 164.8 74.72 M164.8 74.72 C164.8 91.33, 156.5 99.63, 139.89 99.63 M164.8 74.72 C164.8 91.33, 156.5 99.63, 139.89 99.63 M139.89 99.63 C110.9 99.63, 81.91 99.63, 24.91 99.63 M139.89 99.63 C114.65 99.63, 89.4 99.63, 24.91 99.63 M24.91 99.63 C8.3 99.63, 0 91.33, 0 74.72 M24.91 99.63 C8.3 99.63, 0 91.33, 0 74.72 M0 74.72 C0 64.37, 0 54.01, 0 24.91 M0 74.72 C0 60.06, 0 45.4, 0 24.91 M0 24.91 C0 8.3, 8.3 0, 24.91 0 M0 24.91 C0 8.3, 8.3 0, 24.91 0" stroke="#1e1e1e" stroke-width="1" fill="none"></path></g><g transform="translate(797.7772739543295 276.55254597344504) rotate(0 41.015625 24)"><text x="41.015625" y="0" font-family="Cascadia, Segoe UI Emoji" font-size="20px" fill="#1e1e1e" text-anchor="middle" style="white-space: pre;" direction="ltr" dominant-baseline="text-before-edge">Current</text><text x="41.015625" y="24" font-family="Cascadia, Segoe UI Emoji" font-size="20px" fill="#1e1e1e" text-anchor="middle" style="white-space: pre;" direction="ltr" dominant-baseline="text-before-edge">Source</text></g><g transform="translate(797.7772739543295 391.0031763634203) rotate(0 41.015625 24)"><text x="41.015625" y="0" font-family="Cascadia, Segoe UI Emoji" font-size="20px" fill="#1e1e1e" text-anchor="middle" style="white-space: pre;" direction="ltr" dominant-baseline="text-before-edge">Current</text><text x="41.015625" y="24" font-family="Cascadia, Segoe UI Emoji" font-size="20px" fill="#1e1e1e" text-anchor="middle" style="white-space: pre;" direction="ltr" dominant-baseline="text-before-edge">Sensor</text></g><g stroke-linecap="round" transform="translate(756.3924128467731 365.189097665167) rotate(0 82.40048610755639 49.81407869825331)"><path d="M24.91 0 C57.42 0, 89.93 0, 139.89 0 M24.91 0 C68.31 0, 111.71 0, 139.89 0 M139.89 0 C156.5 0, 164.8 8.3, 164.8 24.91 M139.89 0 C156.5 0, 164.8 8.3, 164.8 24.91 M164.8 24.91 C164.8 39.32, 164.8 53.73, 164.8 74.72 M164.8 24.91 C164.8 36.63, 164.8 48.35, 164.8 74.72 M164.8 74.72 C164.8 91.33, 156.5 99.63, 139.89 99.63 M164.8 74.72 C164.8 91.33, 156.5 99.63, 139.89 99.63 M139.89 99.63 C95.68 99.63, 51.47 99.63, 24.91 99.63 M139.89 99.63 C100.85 99.63, 61.81 99.63, 24.91 99.63 M24.91 99.63 C8.3 99.63, 0 91.33, 0 74.72 M24.91 99.63 C8.3 99.63, 0 91.33, 0 74.72 M0 74.72 C0 55.61, 0 36.5, 0 24.91 M0 74.72 C0 63.78, 0 52.84, 0 24.91 M0 24.91 C0 8.3, 8.3 0, 24.91 0 M0 24.91 C0 8.3, 8.3 0, 24.91 0" stroke="#1e1e1e" stroke-width="1" fill="none"></path></g><g stroke-linecap="round" transform="translate(756.3924128467731 509.1460601668781) rotate(0 82.40048610755639 49.81407869825331)"><path d="M24.91 0 C69.44 0, 113.97 0, 139.89 0 M24.91 0 C56.55 0, 88.19 0, 139.89 0 M139.89 0 C156.5 0, 164.8 8.3, 164.8 24.91 M139.89 0 C156.5 0, 164.8 8.3, 164.8 24.91 M164.8 24.91 C164.8 39.75, 164.8 54.6, 164.8 74.72 M164.8 24.91 C164.8 43.02, 164.8 61.14, 164.8 74.72 M164.8 74.72 C164.8 91.33, 156.5 99.63, 139.89 99.63 M164.8 74.72 C164.8 91.33, 156.5 99.63, 139.89 99.63 M139.89 99.63 C116 99.63, 92.1 99.63, 24.91 99.63 M139.89 99.63 C107.36 99.63, 74.82 99.63, 24.91 99.63 M24.91 99.63 C8.3 99.63, 0 91.33, 0 74.72 M24.91 99.63 C8.3 99.63, 0 91.33, 0 74.72 M0 74.72 C0 55.25, 0 35.77, 0 24.91 M0 74.72 C0 57.81, 0 40.89, 0 24.91 M0 24.91 C0 8.3, 8.3 0, 24.91 0 M0 24.91 C0 8.3, 8.3 0, 24.91 0" stroke="#1e1e1e" stroke-width="1" fill="none"></path></g><g transform="translate(797.7772739543295 534.9601388651315) rotate(0 41.015625 24)"><text x="41.015625" y="0" font-family="Cascadia, Segoe UI Emoji" font-size="20px" fill="#1e1e1e" text-anchor="middle" style="white-space: pre;" direction="ltr" dominant-baseline="text-before-edge">Current</text><text x="41.015625" y="24" font-family="Cascadia, Segoe UI Emoji" font-size="20px" fill="#1e1e1e" text-anchor="middle" style="white-space: pre;" direction="ltr" dominant-baseline="text-before-edge">Source</text></g><g transform="translate(797.7772739543295 649.4107692551067) rotate(0 41.015625 24.000000000000014)"><text x="41.015625" y="0" font-family="Cascadia, Segoe UI Emoji" font-size="20px" fill="#1e1e1e" text-anchor="middle" style="white-space: pre;" direction="ltr" dominant-baseline="text-before-edge">Current</text><text x="41.015625" y="24" font-family="Cascadia, Segoe UI Emoji" font-size="20px" fill="#1e1e1e" text-anchor="middle" style="white-space: pre;" direction="ltr" dominant-baseline="text-before-edge">Sensor</text></g><g stroke-linecap="round" transform="translate(756.3924128467731 623.5966905568534) rotate(0 82.40048610755639 49.81407869825331)"><path d="M24.91 0 C70.28 0, 115.65 0, 139.89 0 M24.91 0 C61.32 0, 97.72 0, 139.89 0 M139.89 0 C156.5 0, 164.8 8.3, 164.8 24.91 M139.89 0 C156.5 0, 164.8 8.3, 164.8 24.91 M164.8 24.91 C164.8 36.47, 164.8 48.03, 164.8 74.72 M164.8 24.91 C164.8 36.87, 164.8 48.84, 164.8 74.72 M164.8 74.72 C164.8 91.33, 156.5 99.63, 139.89 99.63 M164.8 74.72 C164.8 91.33, 156.5 99.63, 139.89 99.63 M139.89 99.63 C96.31 99.63, 52.73 99.63, 24.91 99.63 M139.89 99.63 C107.48 99.63, 75.07 99.63, 24.91 99.63 M24.91 99.63 C8.3 99.63, 0 91.33, 0 74.72 M24.91 99.63 C8.3 99.63, 0 91.33, 0 74.72 M0 74.72 C0 56.85, 0 38.98, 0 24.91 M0 74.72 C0 60.22, 0 45.71, 0 24.91 M0 24.91 C0 8.3, 8.3 0, 24.91 0 M0 24.91 C0 8.3, 8.3 0, 24.91 0" stroke="#1e1e1e" stroke-width="1" fill="none"></path></g><g stroke-linecap="round" transform="translate(756.3924128467731 767.5536530585645) rotate(0 82.40048610755639 49.8140786982533)"><path d="M24.91 0 C62.38 0, 99.85 0, 139.89 0 M24.91 0 C57.56 0, 90.22 0, 139.89 0 M139.89 0 C156.5 0, 164.8 8.3, 164.8 24.91 M139.89 0 C156.5 0, 164.8 8.3, 164.8 24.91 M164.8 24.91 C164.8 38.42, 164.8 51.92, 164.8 74.72 M164.8 24.91 C164.8 35.05, 164.8 45.2, 164.8 74.72 M164.8 74.72 C164.8 91.33, 156.5 99.63, 139.89 99.63 M164.8 74.72 C164.8 91.33, 156.5 99.63, 139.89 99.63 M139.89 99.63 C108.57 99.63, 77.24 99.63, 24.91 99.63 M139.89 99.63 C105.9 99.63, 71.9 99.63, 24.91 99.63 M24.91 99.63 C8.3 99.63, 0 91.33, 0 74.72 M24.91 99.63 C8.3 99.63, 0 91.33, 0 74.72 M0 74.72 C0 62.92, 0 51.12, 0 24.91 M0 74.72 C0 59.66, 0 44.6, 0 24.91 M0 24.91 C0 8.3, 8.3 0, 24.91 0 M0 24.91 C0 8.3, 8.3 0, 24.91 0" stroke="#1e1e1e" stroke-width="1" fill="none"></path></g><g transform="translate(797.7772739543295 793.3677317568179) rotate(0 41.015625 24)"><text x="41.015625" y="0" font-family="Cascadia, Segoe UI Emoji" font-size="20px" fill="#1e1e1e" text-anchor="middle" style="white-space: pre;" direction="ltr" dominant-baseline="text-before-edge">Current</text><text x="41.015625" y="24" font-family="Cascadia, Segoe UI Emoji" font-size="20px" fill="#1e1e1e" text-anchor="middle" style="white-space: pre;" direction="ltr" dominant-baseline="text-before-edge">Source</text></g><g transform="translate(797.7772739543295 907.8183621467931) rotate(0 41.015625 24)"><text x="41.015625" y="0" font-family="Cascadia, Segoe UI Emoji" font-size="20px" fill="#1e1e1e" text-anchor="middle" style="white-space: pre;" direction="ltr" dominant-baseline="text-before-edge">Current</text><text x="41.015625" y="24" font-family="Cascadia, Segoe UI Emoji" font-size="20px" fill="#1e1e1e" text-anchor="middle" style="white-space: pre;" direction="ltr" dominant-baseline="text-before-edge">Sensor</text></g><g stroke-linecap="round" transform="translate(756.3924128467731 882.0042834485398) rotate(0 82.40048610755639 49.8140786982533)"><path d="M24.91 0 C69.67 0, 114.43 0, 139.89 0 M24.91 0 C70.81 0, 116.72 0, 139.89 0 M139.89 0 C156.5 0, 164.8 8.3, 164.8 24.91 M139.89 0 C156.5 0, 164.8 8.3, 164.8 24.91 M164.8 24.91 C164.8 37.18, 164.8 49.46, 164.8 74.72 M164.8 24.91 C164.8 41.1, 164.8 57.29, 164.8 74.72 M164.8 74.72 C164.8 91.33, 156.5 99.63, 139.89 99.63 M164.8 74.72 C164.8 91.33, 156.5 99.63, 139.89 99.63 M139.89 99.63 C103.8 99.63, 67.7 99.63, 24.91 99.63 M139.89 99.63 C108.82 99.63, 77.75 99.63, 24.91 99.63 M24.91 99.63 C8.3 99.63, 0 91.33, 0 74.72 M24.91 99.63 C8.3 99.63, 0 91.33, 0 74.72 M0 74.72 C0 61.87, 0 49.02, 0 24.91 M0 74.72 C0 59.72, 0 44.71, 0 24.91 M0 24.91 C0 8.3, 8.3 0, 24.91 0 M0 24.91 C0 8.3, 8.3 0, 24.91 0" stroke="#1e1e1e" stroke-width="1" fill="none"></path></g><g stroke-linecap="round" transform="translate(1184.9685471653409 815.3590232226804) rotate(0 70.5 68.5)"><path d="M32 0 C53.83 0, 75.66 0, 109 0 M32 0 C49.96 0, 67.92 0, 109 0 M109 0 C130.33 0, 141 10.67, 141 32 M109 0 C130.33 0, 141 10.67, 141 32 M141 32 C141 51.2, 141 70.41, 141 105 M141 32 C141 53.01, 141 74.02, 141 105 M141 105 C141 126.33, 130.33 137, 109 137 M141 105 C141 126.33, 130.33 137, 109 137 M109 137 C89.97 137, 70.95 137, 32 137 M109 137 C92.06 137, 75.12 137, 32 137 M32 137 C10.67 137, 0 126.33, 0 105 M32 137 C10.67 137, 0 126.33, 0 105 M0 105 C0 89.52, 0 74.04, 0 32 M0 105 C0 77.52, 0 50.04, 0 32 M0 32 C0 10.67, 10.67 0, 32 0 M0 32 C0 10.67, 10.67 0, 32 0" stroke="#1e1e1e" stroke-width="1" fill="none"></path></g><g transform="translate(1232.0310471653409 871.8590232226804) rotate(0 23.4375 12)"><text x="23.4375" y="0" font-family="Cascadia, Segoe UI Emoji" font-size="20px" fill="#1e1e1e" text-anchor="middle" style="white-space: pre;" direction="ltr" dominant-baseline="text-before-edge">Coil</text></g><g stroke-linecap="round"><g transform="translate(923.2707758926388 288.9578373143812) rotate(0 130.21950858194782 20.05067978969568)"><path d="M0 0 C19.44 0.83, 85.56 -0.83, 116.65 4.99 C147.74 10.82, 162.57 29.09, 186.54 34.94 C210.5 40.8, 248.12 39.24, 260.44 40.1 M0 0 C19.44 0.83, 85.56 -0.83, 116.65 4.99 C147.74 10.82, 162.57 29.09, 186.54 34.94 C210.5 40.8, 248.12 39.24, 260.44 40.1" stroke="#1e1e1e" stroke-width="1" fill="none"></path></g><g transform="translate(923.2707758926388 288.9578373143812) rotate(0 130.21950858194782 20.05067978969568)"><path d="M260.44 40.1 L246.7 46.13 L246.99 33.45 L260.44 40.1" stroke="none" stroke-width="0" fill="#1e1e1e" fill-rule="evenodd"></path><path d="M260.44 40.1 C255.99 42.05, 251.54 44.01, 246.7 46.13 M260.44 40.1 C255.52 42.26, 250.6 44.42, 246.7 46.13 M246.7 46.13 C246.8 41.67, 246.91 37.21, 246.99 33.45 M246.7 46.13 C246.77 43.36, 246.83 40.6, 246.99 33.45 M246.99 33.45 C250.52 35.2, 254.05 36.94, 260.44 40.1 M246.99 33.45 C252.34 36.1, 257.69 38.74, 260.44 40.1 M260.44 40.1 C260.44 40.1, 260.44 40.1, 260.44 40.1 M260.44 40.1 C260.44 40.1, 260.44 40.1, 260.44 40.1" stroke="#1e1e1e" stroke-width="1" fill="none"></path></g></g><mask></mask><g stroke-linecap="round"><g transform="translate(922.0898834709167 422.084396060177) rotate(0 130.64388545105453 -27.709949906129978)"><path d="M0 0 C20.72 -1.33, 92.92 -1.11, 124.32 -7.99 C155.71 -14.87, 165.55 -33.37, 188.38 -41.27 C211.21 -49.18, 249.14 -53.06, 261.29 -55.42 M0 0 C20.72 -1.33, 92.92 -1.11, 124.32 -7.99 C155.71 -14.87, 165.55 -33.37, 188.38 -41.27 C211.21 -49.18, 249.14 -53.06, 261.29 -55.42" stroke="#1e1e1e" stroke-width="1" fill="none"></path></g><g transform="translate(922.0898834709167 422.084396060177) rotate(0 130.64388545105453 -27.709949906129978)"><path d="M0 0 L13.33 -6.87 L13.84 5.79 L0 0" stroke="none" stroke-width="0" fill="#1e1e1e" fill-rule="evenodd"></path><path d="M0 0 C4.92 -2.54, 9.85 -5.08, 13.33 -6.87 M0 0 C4.76 -2.45, 9.52 -4.91, 13.33 -6.87 M13.33 -6.87 C13.52 -2.19, 13.7 2.49, 13.84 5.79 M13.33 -6.87 C13.52 -2.18, 13.71 2.51, 13.84 5.79 M13.84 5.79 C8.66 3.63, 3.49 1.46, 0 0 M13.84 5.79 C10.5 4.4, 7.17 3, 0 0 M0 0 C0 0, 0 0, 0 0 M0 0 C0 0, 0 0, 0 0" stroke="#1e1e1e" stroke-width="1" fill="none"></path></g></g><mask></mask><g stroke-linecap="round"><g transform="translate(922.502546775831 555.3910365464609) rotate(0 130.3939447552675 20.803848609684138)"><path d="M0 0 C19.75 0.83, 87.1 -0.83, 118.5 5 C149.89 10.82, 164.67 28.85, 188.39 34.95 C212.1 41.05, 248.72 40.5, 260.79 41.61 M0 0 C19.75 0.83, 87.1 -0.83, 118.5 5 C149.89 10.82, 164.67 28.85, 188.39 34.95 C212.1 41.05, 248.72 40.5, 260.79 41.61" stroke="#1e1e1e" stroke-width="1" fill="none"></path></g><g transform="translate(922.502546775831 555.3910365464609) rotate(0 130.3939447552675 20.803848609684138)"><path d="M260.79 41.61 L246.91 47.3 L247.51 34.64 L260.79 41.61" stroke="none" stroke-width="0" fill="#1e1e1e" fill-rule="evenodd"></path><path d="M260.79 41.61 C255.41 43.81, 250.04 46.02, 246.91 47.3 M260.79 41.61 C257.75 42.86, 254.7 44.1, 246.91 47.3 M246.91 47.3 C247.14 42.33, 247.38 37.36, 247.51 34.64 M246.91 47.3 C247.1 43.33, 247.28 39.37, 247.51 34.64 M247.51 34.64 C250.72 36.32, 253.93 38.01, 260.79 41.61 M247.51 34.64 C250.37 36.14, 253.23 37.64, 260.79 41.61 M260.79 41.61 C260.79 41.61, 260.79 41.61, 260.79 41.61 M260.79 41.61 C260.79 41.61, 260.79 41.61, 260.79 41.61" stroke="#1e1e1e" stroke-width="1" fill="none"></path></g></g><mask></mask><g stroke-linecap="round"><g transform="translate(923.6700522670476 684.5252376249123) rotate(0 130.14400405948004 -26.15704964119206)"><path d="M0 0 C20.72 -0.67, 92.92 2.22, 124.32 -3.99 C155.71 -10.2, 165.72 -29.2, 188.38 -37.27 C211.04 -45.34, 248.3 -49.9, 260.29 -52.42 M0 0 C20.72 -0.67, 92.92 2.22, 124.32 -3.99 C155.71 -10.2, 165.72 -29.2, 188.38 -37.27 C211.04 -45.34, 248.3 -49.9, 260.29 -52.42" stroke="#1e1e1e" stroke-width="1" fill="none"></path></g><g transform="translate(923.6700522670476 684.5252376249123) rotate(0 130.14400405948004 -26.15704964119206)"><path d="M0 0 L13.56 -6.42 L13.63 6.26 L0 0" stroke="none" stroke-width="0" fill="#1e1e1e" fill-rule="evenodd"></path><path d="M0 0 C3.58 -1.7, 7.16 -3.39, 13.56 -6.42 M0 0 C3.69 -1.75, 7.38 -3.49, 13.56 -6.42 M13.56 -6.42 C13.58 -2.93, 13.6 0.57, 13.63 6.26 M13.56 -6.42 C13.58 -3, 13.6 0.43, 13.63 6.26 M13.63 6.26 C8.85 4.06, 4.07 1.87, 0 0 M13.63 6.26 C8.94 4.1, 4.25 1.95, 0 0 M0 0 C0 0, 0 0, 0 0 M0 0 C0 0, 0 0, 0 0" stroke="#1e1e1e" stroke-width="1" fill="none"></path></g></g><mask></mask><g stroke-linecap="round"><g transform="translate(922.002665384256 816.9808255384398) rotate(0 130.64388545105498 20.117766300091915)"><path d="M0 0 C19.83 0.5, 87.51 -2.49, 119 3 C150.48 8.49, 165.17 26.68, 188.89 32.95 C212.6 39.22, 249.22 39.33, 261.29 40.61 M0 0 C19.83 0.5, 87.51 -2.49, 119 3 C150.48 8.49, 165.17 26.68, 188.89 32.95 C212.6 39.22, 249.22 39.33, 261.29 40.61" stroke="#1e1e1e" stroke-width="1" fill="none"></path></g><g transform="translate(922.002665384256 816.9808255384398) rotate(0 130.64388545105498 20.117766300091915)"><path d="M261.29 40.61 L247.32 46.09 L248.12 33.43 L261.29 40.61" stroke="none" stroke-width="0" fill="#1e1e1e" fill-rule="evenodd"></path><path d="M261.29 40.61 C256.94 42.31, 252.59 44.02, 247.32 46.09 M261.29 40.61 C256.1 42.64, 250.91 44.68, 247.32 46.09 M247.32 46.09 C247.6 41.72, 247.87 37.36, 248.12 33.43 M247.32 46.09 C247.51 43.15, 247.69 40.21, 248.12 33.43 M248.12 33.43 C251.34 35.19, 254.56 36.94, 261.29 40.61 M248.12 33.43 C250.77 34.88, 253.42 36.32, 261.29 40.61 M261.29 40.61 C261.29 40.61, 261.29 40.61, 261.29 40.61 M261.29 40.61 C261.29 40.61, 261.29 40.61, 261.29 40.61" stroke="#1e1e1e" stroke-width="1" fill="none"></path></g></g><mask></mask><g stroke-linecap="round"><g transform="translate(923.6700522670476 936.1173987853977) rotate(0 129.89406336369268 -22.012570864314682)"><path d="M0 0 C20.72 -0.42, 92.84 2.3, 124.32 -2.49 C155.8 -7.29, 166.3 -21.79, 188.88 -28.78 C211.46 -35.76, 247.97 -41.81, 259.79 -44.42 M0 0 C20.72 -0.42, 92.84 2.3, 124.32 -2.49 C155.8 -7.29, 166.3 -21.79, 188.88 -28.78 C211.46 -35.76, 247.97 -41.81, 259.79 -44.42" stroke="#1e1e1e" stroke-width="1" fill="none"></path></g><g transform="translate(923.6700522670476 936.1173987853977) rotate(0 129.89406336369268 -22.012570864314682)"><path d="M0 0 L13.6 -6.33 L13.59 6.35 L0 0" stroke="none" stroke-width="0" fill="#1e1e1e" fill-rule="evenodd"></path><path d="M0 0 C4.45 -2.07, 8.91 -4.14, 13.6 -6.33 M0 0 C4.98 -2.32, 9.96 -4.63, 13.6 -6.33 M13.6 -6.33 C13.6 -3.37, 13.6 -0.41, 13.59 6.35 M13.6 -6.33 C13.6 -2.8, 13.59 0.74, 13.59 6.35 M13.59 6.35 C10.48 4.9, 7.36 3.44, 0 0 M13.59 6.35 C9.73 4.55, 5.88 2.75, 0 0 M0 0 C0 0, 0 0, 0 0 M0 0 C0 0, 0 0, 0 0" stroke="#1e1e1e" stroke-width="1" fill="none"></path></g></g><mask></mask><g stroke-linecap="round"><g transform="translate(545.6825423478115 540.5190657277396) rotate(0 105.72491431804389 -121.47117815264613)"><path d="M0 0 C8.83 -12.33, 33.33 -37.49, 52.99 -73.98 C72.65 -110.47, 91.56 -190.79, 117.97 -218.95 C144.38 -247.11, 195.87 -238.94, 211.45 -242.94 M0 0 C8.83 -12.33, 33.33 -37.49, 52.99 -73.98 C72.65 -110.47, 91.56 -190.79, 117.97 -218.95 C144.38 -247.11, 195.87 -238.94, 211.45 -242.94" stroke="#1e1e1e" stroke-width="1" fill="none"></path></g><g transform="translate(545.6825423478115 540.5190657277396) rotate(0 105.72491431804389 -121.47117815264613)"><path d="M211.45 -242.94 L198.36 -235.62 L197.43 -248.27 L211.45 -242.94" stroke="none" stroke-width="0" fill="#1e1e1e" fill-rule="evenodd"></path><path d="M211.45 -242.94 C207.1 -240.51, 202.75 -238.08, 198.36 -235.62 M211.45 -242.94 C207.14 -240.53, 202.82 -238.12, 198.36 -235.62 M198.36 -235.62 C198.02 -240.14, 197.69 -244.66, 197.43 -248.27 M198.36 -235.62 C198.09 -239.29, 197.82 -242.96, 197.43 -248.27 M197.43 -248.27 C201 -246.91, 204.57 -245.55, 211.45 -242.94 M197.43 -248.27 C200.51 -247.1, 203.59 -245.93, 211.45 -242.94 M211.45 -242.94 C211.45 -242.94, 211.45 -242.94, 211.45 -242.94 M211.45 -242.94 C211.45 -242.94, 211.45 -242.94, 211.45 -242.94" stroke="#1e1e1e" stroke-width="1" fill="none"></path></g></g><mask></mask><g stroke-linecap="round"><g transform="translate(545.6825423478115 552.0163377339571) rotate(0 105.22503292646928 -68.98363203730521)"><path d="M0 0 C12.83 -8.75, 53.82 -31.83, 76.98 -52.49 C100.14 -73.15, 116.72 -109.72, 138.97 -123.97 C161.21 -138.22, 198.54 -135.63, 210.45 -137.97 M0 0 C12.83 -8.75, 53.82 -31.83, 76.98 -52.49 C100.14 -73.15, 116.72 -109.72, 138.97 -123.97 C161.21 -138.22, 198.54 -135.63, 210.45 -137.97" stroke="#1e1e1e" stroke-width="1" fill="none"></path></g><g transform="translate(545.6825423478115 552.0163377339571) rotate(0 105.22503292646928 -68.98363203730521)"><path d="M210.45 -137.97 L197.42 -130.53 L196.38 -143.17 L210.45 -137.97" stroke="none" stroke-width="0" fill="#1e1e1e" fill-rule="evenodd"></path><path d="M210.45 -137.97 C207 -136, 203.55 -134.03, 197.42 -130.53 M210.45 -137.97 C205.88 -135.36, 201.31 -132.75, 197.42 -130.53 M197.42 -130.53 C197.14 -133.98, 196.85 -137.44, 196.38 -143.17 M197.42 -130.53 C197.09 -134.51, 196.77 -138.49, 196.38 -143.17 M196.38 -143.17 C201.69 -141.21, 206.99 -139.25, 210.45 -137.97 M196.38 -143.17 C199.77 -141.92, 203.15 -140.66, 210.45 -137.97 M210.45 -137.97 C210.45 -137.97, 210.45 -137.97, 210.45 -137.97 M210.45 -137.97 C210.45 -137.97, 210.45 -137.97, 210.45 -137.97" stroke="#1e1e1e" stroke-width="1" fill="none"></path></g></g><mask></mask><g stroke-linecap="round"><g transform="translate(547.1821865225347 589.5074421020579) rotate(0 104.72515153489445 -16.246145226176935)"><path d="M0 0 C13.58 -1.42, 56.82 -4, 81.48 -8.5 C106.14 -13, 126.64 -22.99, 147.96 -26.99 C169.29 -30.99, 199.2 -31.58, 209.45 -32.49 M0 0 C13.58 -1.42, 56.82 -4, 81.48 -8.5 C106.14 -13, 126.64 -22.99, 147.96 -26.99 C169.29 -30.99, 199.2 -31.58, 209.45 -32.49" stroke="#1e1e1e" stroke-width="1" fill="none"></path></g><g transform="translate(547.1821865225347 589.5074421020579) rotate(0 104.72515153489445 -16.246145226176935)"><path d="M209.45 -32.49 L196.26 -25.34 L195.5 -38 L209.45 -32.49" stroke="none" stroke-width="0" fill="#1e1e1e" fill-rule="evenodd"></path><path d="M209.45 -32.49 C205.04 -30.1, 200.63 -27.71, 196.26 -25.34 M209.45 -32.49 C205.57 -30.39, 201.69 -28.28, 196.26 -25.34 M196.26 -25.34 C196.07 -28.55, 195.87 -31.76, 195.5 -38 M196.26 -25.34 C196.06 -28.71, 195.86 -32.08, 195.5 -38 M195.5 -38 C200.82 -35.89, 206.15 -33.79, 209.45 -32.49 M195.5 -38 C199.28 -36.5, 203.06 -35.01, 209.45 -32.49 M209.45 -32.49 C209.45 -32.49, 209.45 -32.49, 209.45 -32.49 M209.45 -32.49 C209.45 -32.49, 209.45 -32.49, 209.45 -32.49" stroke="#1e1e1e" stroke-width="1" fill="none"></path></g></g><mask></mask><g stroke-linecap="round"><g transform="translate(546.6823051309602 631.4974789943307) rotate(0 103.97532944753243 19.495374271412345)"><path d="M0 0 C12.25 1.08, 49.4 1.58, 73.48 6.5 C97.56 11.41, 122.05 24.08, 144.47 29.49 C166.88 34.91, 197.37 37.41, 207.95 38.99 M0 0 C12.25 1.08, 49.4 1.58, 73.48 6.5 C97.56 11.41, 122.05 24.08, 144.47 29.49 C166.88 34.91, 197.37 37.41, 207.95 38.99" stroke="#1e1e1e" stroke-width="1" fill="none"></path></g><g transform="translate(546.6823051309602 631.4974789943307) rotate(0 103.97532944753243 19.495374271412345)"><path d="M207.95 38.99 L193.69 43.64 L195.22 31.05 L207.95 38.99" stroke="none" stroke-width="0" fill="#1e1e1e" fill-rule="evenodd"></path><path d="M207.95 38.99 C202.65 40.72, 197.35 42.44, 193.69 43.64 M207.95 38.99 C203.44 40.46, 198.93 41.93, 193.69 43.64 M193.69 43.64 C194.13 40, 194.58 36.37, 195.22 31.05 M193.69 43.64 C194.2 39.48, 194.7 35.32, 195.22 31.05 M195.22 31.05 C200.23 34.18, 205.25 37.3, 207.95 38.99 M195.22 31.05 C199.57 33.76, 203.92 36.48, 207.95 38.99 M207.95 38.99 C207.95 38.99, 207.95 38.99, 207.95 38.99 M207.95 38.99 C207.95 38.99, 207.95 38.99, 207.95 38.99" stroke="#1e1e1e" stroke-width="1" fill="none"></path></g></g><mask></mask><g stroke-linecap="round"><g transform="translate(545.6825423478108 676.9866856276261) rotate(0 104.97509223068187 125.72016998103084)"><path d="M0 0 C9 12.75, 33.49 40.16, 53.99 76.48 C74.48 112.81, 96.98 188.79, 122.97 217.95 C148.96 247.11, 195.45 245.86, 209.95 251.44 M0 0 C9 12.75, 33.49 40.16, 53.99 76.48 C74.48 112.81, 96.98 188.79, 122.97 217.95 C148.96 247.11, 195.45 245.86, 209.95 251.44" stroke="#1e1e1e" stroke-width="1" fill="none"></path></g><g transform="translate(545.6825423478108 676.9866856276261) rotate(0 104.97509223068187 125.72016998103084)"><path d="M209.95 251.44 L195.35 254.9 L197.92 242.48 L209.95 251.44" stroke="none" stroke-width="0" fill="#1e1e1e" fill-rule="evenodd"></path><path d="M209.95 251.44 C206.21 252.33, 202.48 253.21, 195.35 254.9 M209.95 251.44 C205.93 252.39, 201.91 253.35, 195.35 254.9 M195.35 254.9 C196.11 251.22, 196.87 247.55, 197.92 242.48 M195.35 254.9 C195.95 252.02, 196.55 249.13, 197.92 242.48 M197.92 242.48 C201.58 245.21, 205.24 247.93, 209.95 251.44 M197.92 242.48 C200.97 244.75, 204.02 247.02, 209.95 251.44 M209.95 251.44 C209.95 251.44, 209.95 251.44, 209.95 251.44 M209.95 251.44 C209.95 251.44, 209.95 251.44, 209.95 251.44" stroke="#1e1e1e" stroke-width="1" fill="none"></path></g></g><mask></mask><g stroke-linecap="round"><g transform="translate(545.6825423478108 662.9900066635352) rotate(0 104.97509223068187 76.48185291092537)"><path d="M0 0 C12.41 6.67, 52.32 18.83, 74.48 39.99 C96.64 61.15, 110.39 108.14, 132.97 126.97 C155.55 145.8, 197.12 148.63, 209.95 152.96 M0 0 C12.41 6.67, 52.32 18.83, 74.48 39.99 C96.64 61.15, 110.39 108.14, 132.97 126.97 C155.55 145.8, 197.12 148.63, 209.95 152.96" stroke="#1e1e1e" stroke-width="1" fill="none"></path></g><g transform="translate(545.6825423478108 662.9900066635352) rotate(0 104.97509223068187 76.48185291092537)"><path d="M209.95 152.96 L195.31 156.23 L198.04 143.85 L209.95 152.96" stroke="none" stroke-width="0" fill="#1e1e1e" fill-rule="evenodd"></path><path d="M209.95 152.96 C205.49 153.96, 201.03 154.95, 195.31 156.23 M209.95 152.96 C204.65 154.15, 199.35 155.33, 195.31 156.23 M195.31 156.23 C196 153.11, 196.69 149.99, 198.04 143.85 M195.31 156.23 C196.1 152.66, 196.88 149.09, 198.04 143.85 M198.04 143.85 C202.64 147.37, 207.25 150.9, 209.95 152.96 M198.04 143.85 C200.73 145.91, 203.42 147.97, 209.95 152.96 M209.95 152.96 C209.95 152.96, 209.95 152.96, 209.95 152.96 M209.95 152.96 C209.95 152.96, 209.95 152.96, 209.95 152.96" stroke="#1e1e1e" stroke-width="1" fill="none"></path></g></g><mask></mask><g stroke-linecap="round" transform="translate(189.93978929239728 220.1408408990236) rotate(0 440.9669049461136 396.69227676619016)"><path d="M32 0 C200.56 0, 369.12 0, 849.93 0 M849.93 0 C871.27 0, 881.93 10.67, 881.93 32 M881.93 32 C881.93 321.33, 881.93 610.65, 881.93 761.38 M881.93 761.38 C881.93 782.72, 871.27 793.38, 849.93 793.38 M849.93 793.38 C557.18 793.38, 264.43 793.38, 32 793.38 M32 793.38 C10.67 793.38, 0 782.72, 0 761.38 M0 761.38 C0 498.8, 0 236.21, 0 32 M0 32 C0 10.67, 10.67 0, 32 0" stroke="#1e1e1e" stroke-width="1.5" fill="none" stroke-dasharray="1.5 7"></path></g><g transform="translate(553.1051415112422 191.91996779038902) rotate(0 111.328125 12)"><text x="111.328125" y="0" font-family="Cascadia, Segoe UI Emoji" font-size="20px" fill="#1e1e1e" text-anchor="middle" style="white-space: pre;" direction="ltr" dominant-baseline="text-before-edge">Embedded Controller</text></g><g stroke-linecap="round" transform="translate(334.4360957349265 10) rotate(0 346.23753726960354 47)"><path d="M23.5 0 C238.05 0, 452.6 0, 668.98 0 M23.5 0 C230.95 0, 438.41 0, 668.98 0 M668.98 0 C684.64 0, 692.48 7.83, 692.48 23.5 M668.98 0 C684.64 0, 692.48 7.83, 692.48 23.5 M692.48 23.5 C692.48 42.18, 692.48 60.85, 692.48 70.5 M692.48 23.5 C692.48 36.18, 692.48 48.85, 692.48 70.5 M692.48 70.5 C692.48 86.17, 684.64 94, 668.98 94 M692.48 70.5 C692.48 86.17, 684.64 94, 668.98 94 M668.98 94 C411.47 94, 153.97 94, 23.5 94 M668.98 94 C470.67 94, 272.37 94, 23.5 94 M23.5 94 C7.83 94, 0 86.17, 0 70.5 M23.5 94 C7.83 94, 0 86.17, 0 70.5 M0 70.5 C0 53.94, 0 37.37, 0 23.5 M0 70.5 C0 59.08, 0 47.65, 0 23.5 M0 23.5 C0 7.83, 7.83 0, 23.5 0 M0 23.5 C0 7.83, 7.83 0, 23.5 0" stroke="#1e1e1e" stroke-width="1" fill="none"></path></g><g transform="translate(604.5017580045301 45) rotate(0 76.171875 12)"><text x="76.171875" y="0" font-family="Cascadia, Segoe UI Emoji" font-size="20px" fill="#1e1e1e" text-anchor="middle" style="white-space: pre;" direction="ltr" dominant-baseline="text-before-edge">Host Computer</text></g><g stroke-linecap="round" transform="translate(236.6452036589157 819.2572090797108) rotate(0 70.5 68.5)"><path d="M32 0 C47.89 0, 63.78 0, 109 0 M32 0 C51.89 0, 71.78 0, 109 0 M109 0 C130.33 0, 141 10.67, 141 32 M109 0 C130.33 0, 141 10.67, 141 32 M141 32 C141 60.36, 141 88.73, 141 105 M141 32 C141 50.01, 141 68.01, 141 105 M141 105 C141 126.33, 130.33 137, 109 137 M141 105 C141 126.33, 130.33 137, 109 137 M109 137 C87.93 137, 66.86 137, 32 137 M109 137 C87.75 137, 66.51 137, 32 137 M32 137 C10.67 137, 0 126.33, 0 105 M32 137 C10.67 137, 0 126.33, 0 105 M0 105 C0 88.87, 0 72.75, 0 32 M0 105 C0 76.91, 0 48.82, 0 32 M0 32 C0 10.67, 10.67 0, 32 0 M0 32 C0 10.67, 10.67 0, 32 0" stroke="#1e1e1e" stroke-width="1" fill="none"></path></g><g transform="translate(289.5670786589157 875.7572090797107) rotate(0 17.578125 12)"><text x="17.578125" y="0" font-family="Cascadia, Segoe UI Emoji" font-size="20px" fill="#1e1e1e" text-anchor="middle" style="white-space: pre;" direction="ltr" dominant-baseline="text-before-edge">RTC</text></g><g stroke-linecap="round"><g transform="translate(281.02051456545604 817.1175871228443) rotate(0 24.094456231063532 -103.97256317553325)"><path d="M0 0 C0.1 -10.2, -0.79 -30.87, 0.57 -61.21 C1.94 -91.55, 0.22 -157.59, 8.18 -182.05 C16.15 -206.5, 41.68 -203.63, 48.38 -207.95 M0 0 C0.1 -10.2, -0.79 -30.87, 0.57 -61.21 C1.94 -91.55, 0.22 -157.59, 8.18 -182.05 C16.15 -206.5, 41.68 -203.63, 48.38 -207.95" stroke="#1e1e1e" stroke-width="1" fill="none"></path></g><g transform="translate(281.02051456545604 817.1175871228443) rotate(0 24.094456231063532 -103.97256317553325)"><path d="M48.38 -207.95 L37.04 -198.14 L33.57 -210.33 L48.38 -207.95" stroke="none" stroke-width="0" fill="#1e1e1e" fill-rule="evenodd"></path><path d="M48.38 -207.95 C44.52 -204.61, 40.66 -201.27, 37.04 -198.14 M48.38 -207.95 C43.89 -204.06, 39.39 -200.17, 37.04 -198.14 M37.04 -198.14 C35.88 -202.22, 34.72 -206.3, 33.57 -210.33 M37.04 -198.14 C36.07 -201.53, 35.11 -204.93, 33.57 -210.33 M33.57 -210.33 C36.63 -209.84, 39.69 -209.35, 48.38 -207.95 M33.57 -210.33 C38.95 -209.47, 44.33 -208.6, 48.38 -207.95 M48.38 -207.95 C48.38 -207.95, 48.38 -207.95, 48.38 -207.95 M48.38 -207.95 C48.38 -207.95, 48.38 -207.95, 48.38 -207.95" stroke="#1e1e1e" stroke-width="1" fill="none"></path></g></g><mask></mask></svg>